<svg t="1722514211150" class="icon" viewBox="0 0 1024 1024" version="1.1" xmlns="http://www.w3.org/2000/svg" p-id="4434" width="200" height="200"><path d="M335.580988 330.511529c0 10.737552-8.705266 19.442818-19.442818 19.442818l-99.253538 0c-10.737552 0-19.442818-8.705266-19.442818-19.442818l0-45.579081c0-10.737552 8.705266-19.442818 19.442818-19.442818l99.253538 0c10.737552 0 19.442818 8.705266 19.442818 19.442818L335.580988 330.511529z" fill="#272636" p-id="4435"></path><path d="M851.301729 330.511529c0 10.737552-8.705266 19.442818-19.442818 19.442818L421.023986 349.954347c-10.737552 0-19.442818-8.705266-19.442818-19.442818l0-45.579081c0-10.737552 8.705266-19.442818 19.442818-19.442818l410.834926 0c10.737552 0 19.442818 8.705266 19.442818 19.442818L851.301729 330.511529 851.301729 330.511529z" fill="#272636" p-id="4436"></path><path d="M335.580988 518.139837c0 10.737552-8.705266 19.442818-19.442818 19.442818l-99.253538 0c-10.737552 0-19.442818-8.705266-19.442818-19.442818l0-45.579081c0-10.737552 8.705266-19.442818 19.442818-19.442818l99.253538 0c10.737552 0 19.442818 8.705266 19.442818 19.442818L335.580988 518.139837z" fill="#272636" p-id="4437"></path><path d="M851.301729 518.139837c0 10.737552-8.705266 19.442818-19.442818 19.442818L421.023986 537.582655c-10.737552 0-19.442818-8.705266-19.442818-19.442818l0-45.579081c0-10.737552 8.705266-19.442818 19.442818-19.442818l410.834926 0c10.737552 0 19.442818 8.705266 19.442818 19.442818L851.301729 518.139837 851.301729 518.139837z" fill="#272636" p-id="4438"></path><path d="M335.580988 700.288341c0 10.737552-8.705266 19.442818-19.442818 19.442818l-99.253538 0c-10.737552 0-19.442818-8.705266-19.442818-19.442818l0-45.579081c0-10.737552 8.705266-19.442818 19.442818-19.442818l99.253538 0c10.737552 0 19.442818 8.705266 19.442818 19.442818L335.580988 700.288341z" fill="#272636" p-id="4439"></path><path d="M851.301729 700.288341c0 10.737552-8.705266 19.442818-19.442818 19.442818L421.023986 719.731158c-10.737552 0-19.442818-8.705266-19.442818-19.442818l0-45.579081c0-10.737552 8.705266-19.442818 19.442818-19.442818l410.834926 0c10.737552 0 19.442818 8.705266 19.442818 19.442818L851.301729 700.288341 851.301729 700.288341z" fill="#272636" p-id="4440"></path></svg>