<svg t="1722514180808" class="icon" viewBox="0 0 1024 1024" version="1.1" xmlns="http://www.w3.org/2000/svg" p-id="4284" width="200" height="200"><path d="M136 256m-40 0a40 40 0 1 0 80 0 40 40 0 1 0-80 0Z" fill="#999999" p-id="4285"></path><path d="M136 512m-40 0a40 40 0 1 0 80 0 40 40 0 1 0-80 0Z" fill="#999999" p-id="4286"></path><path d="M136 768m-40 0a40 40 0 1 0 80 0 40 40 0 1 0-80 0Z" fill="#999999" p-id="4287"></path><path d="M296 296.43h591.17c22.45 0 41.27-18.37 40.82-40.82a40 40 0 0 0-40-39.18H296.83c-22.45 0-41.27 18.37-40.82 40.82A40 40 0 0 0 296 296.43zM888 472.21H296.83c-22.45 0-41.27 18.38-40.82 40.82a40 40 0 0 0 40 39.18h591.16c22.45 0 41.27-18.37 40.82-40.81A40 40 0 0 0 888 472.21zM888 728H296.83c-22.45 0-41.27 18.37-40.82 40.82A40 40 0 0 0 296 808h591.17c22.45 0 41.27-18.37 40.82-40.82A40 40 0 0 0 888 728z" fill="#999999" p-id="4288"></path></svg>