<svg t="1722495070285" class="icon" viewBox="0 0 1028 1024" version="1.1" xmlns="http://www.w3.org/2000/svg" p-id="12589" width="200" height="200"><path d="M517.663909 0.02518A522.709908 522.709908 0 0 1 907.48984 171.17815a383.516933 383.516933 0 0 1 104.289982 343.988939A306.981946 306.981946 0 0 1 729.187872 759.910046c-31.118995 2.103-62.237989 0-93.355984 3.364s-42.052993 20.185996-22.708996 47.939991a126.156978 126.156978 0 0 1 10.512998 144.659975 132.884977 132.884977 0 0 1-128.679977 62.657989A509.25391 509.25391 0 0 1 308.663946 41.657173a519.766909 519.766909 0 0 1 208.999963-41.631993z m55.50999 103.448982C339.78294 96.746163 165.685971 225.42614 119.007979 397.84011a405.384929 405.384929 0 0 0 190.917967 466.781918 391.506931 391.506931 0 0 0 194.701965 52.144991c10.933998 0 28.595995-5.466999 31.959995-13.036998s-2.943999-24.389996-6.307999-37.005993a32.799994 32.799994 0 0 0-6.307999-9.250999 123.212978 123.212978 0 0 1 76.955986-190.917966 694.704878 694.704878 0 0 1 98.402983-6.307999 210.261963 210.261963 0 0 0 185.449967-101.345982c58.87399-96.719983 34.482994-191.758966-21.445996-276.283952a385.619932 385.619932 0 0 0-290.160949-179.142968z" fill="#6E7798" p-id="12590"></path><path d="M529.439907 338.96712a77.375986 77.375986 0 0 1-78.217986-73.590987 74.852987 74.852987 0 0 1 72.749987-78.637986 76.156987 76.156987 0 1 1 5.466999 152.229973z" fill="#FF7D12" p-id="12591"></path><path d="M325.064943 291.869129a76.114987 76.114987 0 1 1-74.853987 76.113986 75.693987 75.693987 0 0 1 74.853987-76.113986z" fill="#37C15C" p-id="12592"></path><path d="M657.277884 360.834117a74.432987 74.432987 0 0 1 75.273987-75.272987 76.955986 76.955986 0 0 1 77.375987 77.375986 79.478986 79.478986 0 0 1-77.796987 74.852987 77.375986 77.375986 0 0 1-74.852987-76.955986z" fill="#F93B21" p-id="12593"></path><path d="M278.386951 648.472066a76.534987 76.534987 0 0 1-77.796986-76.954986 80.739986 80.739986 0 0 1 75.272987-74.852987 76.114987 76.114987 0 0 1 77.796986 79.477986 73.591987 73.591987 0 0 1-75.272987 72.329987z" fill="#1E95FF" p-id="12594"></path></svg>