<?xml version="1.0" standalone="no"?><!DOCTYPE svg PUBLIC "-//W3C//DTD SVG 1.1//EN" "http://www.w3.org/Graphics/SVG/1.1/DTD/svg11.dtd"><svg t="1720782837914" class="icon" viewBox="0 0 1024 1024" version="1.1" xmlns="http://www.w3.org/2000/svg" p-id="12915" data-darkreader-inline-fill="" xmlns:xlink="http://www.w3.org/1999/xlink" width="200" height="200"><path d="M510.35 64.07C443.7 65.88 390.82 105 387.32 155l-0.1 1.43 1.25 52.38c-12.71 13.16-50.05 36.89-68 44.41l-54-29.27c-23.94-12.94-53.78-12-81.89 2.77-24.55 12.86-46.31 35.18-61.3 62.88-31.71 58.61-24.35 124 17.1 152l51 28c3.55 18.62 3.5 61.52-0.11 79.49l-51.59 31.75c-45.24 27.8-51.73 96.7-14.79 156.86s101.31 85.49 146.57 57.67l48.06-29.57c17.29 6.62 50.72 26.38 63.9 37.88l1.94 67.32c5.46 60.16 59.48 94 141.77 88.39 61.87-3.52 110.73-47.13 109.71-97.2l-1.59-58.38c12.9-11.22 43.78-30.2 60.17-37l60.76 32.91c25.52 17.09 48.85 15.93 64 11.84 33.65-9 63.44-40.82 89.23-95.77 25-52.32 10.66-113.63-32.11-136.82l-47.82-25.86c-4.43-16.1-6.94-53.91-5.58-72.45l60.35-37.12C909.82 427.83 923 399 923 366.11c0-25.4-7.85-53.26-23.94-79.41-36-58.55-99.34-84.46-145.2-58.47l-42.25 25.93c-16.7-3.34-54.49-21.2-71.07-32.44l-1.83-66.42c-0.73-27.23-16.51-52.59-43.3-69.58-23.41-14.84-53.62-22.53-85.06-21.65z m49.91 91.59c4.2 2.67 14 9.84 14.27 18.72l2.3 83.52 4.24 6.73c14.12 22.43 100.46 66.78 134.63 59.8l5-1 51-31.25c11.5-6.52 39.59 4 59.22 36s16.13 62.5 5 69.31l-75.12 46.09-3.7 7.35c-4.29 8.49-6.52 26.92-6.52 47.93 0 34 5.86 74.72 18.37 90.89l3.76 4.86 59.37 32.13c10.54 5.68 17.85 29 5 55.59-18.08 38.67-36.03 55.56-46.75 58.42-2 0.54-6.28 1.68-14.22-3.85l-78.63-42.75-7.57 0.1c-26.21 0.37-102.2 44.75-115.85 71.75l-3.29 6.54 2 74v0.34c0 12.52-18.7 30.77-51.13 32.63-25.79 1.76-69.48 0-72.23-29.59l-2.17-78.87-2.9-5.79c-13.05-25.87-92.69-72.88-121.75-71.83l-7.67 0.27-62.24 38.3c-11.15 6.85-39.9-3.7-59.63-35.76s-16.1-62.47-5-69.32l62.78-38.57 3.43-5c17.81-25.7 17.75-122.84-0.1-148.5l-3.91-5.61L190 396.32c-10.11-8.13-13.82-37.13 3-68.25 8.69-16.05 21.16-29.15 34.21-36 4.41-2.3 15.54-7.22 23.34-3L318 325.55l6.91 0.2c29.2 0.83 114.47-52.29 126-83.47l1.92-5.2-1.46-61.52C453.26 162.73 476.53 145 512 144c18.23-0.45 35.81 3.79 48.26 11.66z" fill="#999999" p-id="12916" data-darkreader-inline-fill="" style="--darkreader-inline-fill: #52585c;"></path><path d="M352 512c0 88.22 71.79 160 160 160s160-71.77 160-160-71.77-160-160-160-160 71.79-160 160z m240 0a80 80 0 1 1-80-80 80.07 80.07 0 0 1 80 80z" fill="#999999" p-id="12917" data-darkreader-inline-fill="" style="--darkreader-inline-fill: #52585c;"></path></svg>